<?xml version="1.0" encoding="utf-8"?>
<!-- Generator: Adobe Illustrator 22.1.0, SVG Export Plug-In . SVG Version: 6.00 Build 0)  -->
<svg version="1.1" id="Layer_1" xmlns="http://www.w3.org/2000/svg" xmlns:xlink="http://www.w3.org/1999/xlink" x="0px" y="0px"
	 viewBox="0 0 742 254" style="enable-background:new 0 0 742 254;" xml:space="preserve">
<style type="text/css">
	.st0{fill:#009FE3;}
	.st1{fill:#ED5656;}
	.st2{fill:#3EB7A0;}
	.st3{fill:#8787C6;}
	.st4{fill:#FC9163;}
	.st5{fill:#FC92B6;}
</style>
<g>
	<g>
		<g>
			<g>
				<g>
					<path class="st0" d="M80.1,92.1H35.5c0.3,3.2,1.1,5.6,2.4,7.4c1.3,1.8,3.5,3.1,6.5,3.9c3,0.8,7.1,1.2,12.4,1.2
						c5.4,0,11.8-0.7,19-2.2v19c-7.5,1.6-15.1,2.3-22.6,2.3c-10.1,0-18.3-1.3-24.6-4.1c-6.3-2.7-11-6.9-14-12.6
						c-3-5.7-4.5-13.1-4.5-22.2c0-8.1,1.4-15,4.2-20.8s6.9-10.2,12.3-13.3c5.4-3,12-4.6,19.8-4.6c11.1,0,19.5,3.4,25.2,10.2
						c5.7,6.8,8.6,16.6,8.6,29.3L80.1,92.1L80.1,92.1z M38.1,65.7c-1.7,2.4-2.6,6.4-2.7,12.1h20.9c-0.1-5.7-1-9.7-2.6-12.1
						c-1.7-2.4-4.2-3.5-7.7-3.5C42.5,62.1,39.8,63.3,38.1,65.7z"/>
				</g>
				<g>
					<path class="st0" d="M105.7,119.7c-4.7-2.6-8.4-6.8-11.2-12.3c-2.7-5.6-4.2-12.5-4.2-21c0-13,3.6-22.9,10.7-29.9
						c7.1-6.9,17.5-10.4,31.2-10.4c2,0,4.5,0.1,7.5,0.4V11.9h25.7v110.3h-21.5l-1.6-7.8h-1.1c-2.2,2.9-4.9,5.1-8.2,6.7
						s-7.1,2.4-11.4,2.4C115.7,123.7,110.5,122.3,105.7,119.7z M135,101.9c1.8-0.6,3.4-1.5,4.7-2.7V66.1c-2.3-0.4-4.7-0.7-7.4-0.7
						c-5.5,0-9.6,1.5-12.2,4.4c-2.6,3-3.9,7.8-3.9,14.6c0,6.8,1.1,11.5,3.4,14.2c2.3,2.7,5.5,4.2,9.8,4.2
						C131.2,102.8,133.2,102.5,135,101.9z"/>
				</g>
				<g>
					<path class="st0" d="M189.3,116.2c-4.7-4.9-7.1-12.5-7.1-23V47.3h25.7v44.1c0,3.7,0.7,6.3,2.2,7.8c1.4,1.6,3.5,2.3,6.3,2.3
						c2,0,4-0.4,6.1-1.3c2-0.8,3.7-2,5-3.5V47.3H253v74.9h-21.1l-1.7-7.3h-1.1c-2.7,2.8-5.9,4.9-9.4,6.4s-7.2,2.2-11.1,2.2
						C200.5,123.6,194,121.1,189.3,116.2z"/>
				</g>
				<g>
					<path class="st0" d="M277.6,114c-7-6.5-10.4-16.1-10.4-29c0-12.9,3.7-22.6,11.1-29.1c7.4-6.5,18-9.7,31.9-9.7
						c6.3,0,12.1,0.6,17.3,1.7v20.1c-4.8-0.8-9.3-1.2-13.6-1.2c-7.1,0-12.3,1.4-15.4,4.3c-3.2,2.9-4.8,7.5-4.8,13.8
						c0,6.5,1.6,11.2,4.6,14.1c3,2.9,7.7,4.3,14,4.3c2.3,0,4.6-0.2,6.8-0.6c2.3-0.4,5.1-0.9,8.5-1.7v20c-2.7,0.8-5.8,1.6-9.1,2
						c-3.3,0.5-6.8,0.7-10.2,0.7C294.7,123.8,284.6,120.4,277.6,114z"/>
				</g>
			</g>
		</g>
		<g>
			<g>
				<g>
					<path class="st0" d="M410.9,93.8c-1.6,1.3-2.4,3.2-2.4,5.6c0,2.3,0.7,4,2.1,5.2c1.4,1.2,3.5,1.8,6.2,1.8c1.7,0,3.3-0.3,5-0.8
						c1.6-0.5,3.1-1.3,4.5-2.4V90.9l-7.8,0.6C415.1,91.7,412.5,92.5,410.9,93.8z"/>
				</g>
				<g>
					<path class="st0" d="M500.5,71.1c-3,1.1-5.2,2.5-6.8,4.4v46.9h-25.7V47.6H489l2,9.5h1.1c1.8-3.7,4.4-6.3,7.7-8.1
						c2.1-1.1,4.5-1.9,7-2.3C493.2,20.4,465.7,2.4,434,2.4c-45.3,0-81.9,36.7-81.9,81.9c0,2.8,0.1,5.6,0.4,8.3
						c1.1-0.2,2.3-0.4,3.4-0.4c9,0,16.3,7.3,16.3,16.3c0,6.8-4.2,12.6-10.1,15c13.9,25.4,40.9,42.7,72,42.7
						c45.3,0,81.9-36.7,81.9-81.9c0-5-0.5-9.9-1.3-14.6c-1.5-0.1-3.2-0.3-5.1-0.3C506.4,69.5,503.4,70,500.5,71.1z M451.2,122.4h-21
						l-1.8-7.1h-1.1c-2.1,2.9-4.8,5.1-8,6.4c-3.2,1.4-7,2-11.1,2c-5.1,0-9.6-0.9-13.3-2.8c-3.7-1.8-6.6-4.4-8.5-7.8
						c-2-3.3-3-7.2-3-11.5c0-7.3,2.6-13,7.8-17.1c5.2-4,13.4-6.3,24.7-7l10.5-0.7c-0.1-2.8-0.7-5.1-1.8-6.7
						c-1.1-1.6-2.7-2.8-5.1-3.5c-2.3-0.7-5.4-1.1-9.4-1.1c-3,0-6.4,0.3-10.1,0.8c-3.7,0.5-7,1.2-10.3,2.2v-19
						c3.7-1,7.8-1.8,12.3-2.3c4.4-0.6,8.7-0.8,12.8-0.8c8.7,0,15.7,1.1,21,3.2s9.2,5.6,11.6,10.4s3.7,11.3,3.7,19.7L451.2,122.4
						L451.2,122.4z"/>
				</g>
			</g>
		</g>
	</g>
	<g>
		<path class="st1" d="M64.2,198.1c0,6.5-0.5,11.3-1.6,14.5c-1.6,5-4.4,9-8.6,11.8c-4.2,2.9-9.3,4.3-15.4,4.3
			c-3.4,0-6.5-0.6-9.4-1.8s-5.2-3-7.1-5.2c-0.1-0.2-0.4-0.3-0.5-0.2s-0.3,0.2-0.3,0.5v27.1c0,1-0.6,1.6-1.7,1.6h-5.9
			c-1.1,0-1.7-0.5-1.7-1.6v-79.2c0-1,0.6-1.6,1.7-1.6h5.9c1.1,0,1.7,0.5,1.7,1.6v4.4c0,0.2,0.1,0.4,0.3,0.4c0.1,0.1,0.4,0,0.5-0.2
			c1.9-2.3,4.3-4,7.1-5.3c2.8-1.3,5.9-1.9,9.4-1.9c6.1,0,11.1,1.4,15.3,4.2c4.1,2.8,7,6.6,8.5,11.5
			C63.6,186.7,64.2,191.7,64.2,198.1z M54.3,207.1c0.5-2.2,0.7-5.1,0.7-9c0-3.7-0.1-6.6-0.5-8.6c-0.4-2-1-3.9-1.8-5.6
			c-1.1-2.8-2.9-5.1-5.5-6.7c-2.7-1.6-5.8-2.5-9.4-2.5c-3.5,0-6.3,0.8-8.7,2.5c-2.3,1.6-4.1,3.8-5.2,6.6c-0.8,1.6-1.3,3.4-1.7,5.5
			c-0.4,2.1-0.5,5.1-0.5,8.8s0.1,6.7,0.5,8.9c0.4,2.2,1,4,1.8,5.7c1.1,2.7,2.7,4.8,5.1,6.4c2.4,1.6,5.2,2.4,8.5,2.4
			c3.5,0,6.5-0.8,9-2.3c2.5-1.6,4.3-3.7,5.4-6.2C53.1,211.2,53.8,209.2,54.3,207.1z"/>
		<path class="st2" d="M96.8,224.4c-4.4-2.9-7.5-6.9-9.3-12c-1.2-3.6-1.8-8.4-1.8-14.5c0-5.9,0.6-10.7,1.7-14.3
			c1.8-5,4.9-9,9.3-11.8c4.4-2.9,9.9-4.4,16.3-4.4c6.3,0,11.6,1.5,16.1,4.4c4.4,2.9,7.5,6.8,9.2,11.8c1.2,3.7,1.8,8.6,1.8,14.5
			c0,6-0.6,10.9-1.8,14.5c-1.8,5.1-4.9,9.1-9.3,12c-4.4,2.9-9.8,4.4-15.9,4.4C106.6,228.7,101.2,227.3,96.8,224.4z M123.6,218.4
			c3-2,4.9-4.9,6-8.4c0.7-2.5,1.1-6.5,1.1-11.8c0-5.6-0.4-9.6-1.1-11.8c-1-3.5-2.9-6.3-5.9-8.4c-3-2-6.6-3.1-11-3.1
			c-4.2,0-7.7,1.1-10.6,3.1c-3,2-4.9,4.9-6,8.4c-0.7,2.3-1.1,6.2-1.1,11.8c0,5.6,0.4,9.6,1.1,11.8c1,3.5,2.9,6.3,5.9,8.4
			c3,2,6.6,3.1,11,3.1C117.1,221.5,120.7,220.4,123.6,218.4z"/>
		<path class="st3" d="M200.2,169.2c0.8,0.3,1.2,0.9,0.9,1.9l-1.3,5.1c-0.3,0.9-1,1.3-2.1,0.9c-1.6-0.5-3.7-0.6-6.3-0.6
			c-4.5,0.1-8.2,1.7-11.2,4.5c-3,2.9-4.4,6.5-4.4,10.9v34.3c0,1-0.6,1.6-1.7,1.6h-5.9c-1.1,0-1.7-0.5-1.7-1.6v-56.3
			c0-1,0.6-1.6,1.7-1.6h5.9c1.1,0,1.7,0.5,1.7,1.6v6.6c0,0.3,0.1,0.5,0.2,0.5c0.1,0.1,0.3-0.1,0.4-0.3c1.8-2.8,4.2-5,7-6.6
			c2.8-1.6,6.1-2.3,9.7-2.3C195.9,167.8,198.3,168.3,200.2,169.2z"/>
		<path class="st0" d="M251.3,175.3h-14.2c-0.4,0-0.6,0.2-0.6,0.6v34.3c0,3.7,0.9,6.4,2.8,7.9c1.8,1.6,4.8,2.3,8.7,2.3h2.9
			c1.1,0,1.7,0.5,1.7,1.6v4.1c0,1-0.6,1.6-1.7,1.6h-4.4c-6.2,0-11-1.1-14.2-3.2c-3.2-2.1-4.8-6-4.8-11.8v-36.9
			c0-0.4-0.2-0.6-0.6-0.6h-7.4c-1.1,0-1.7-0.5-1.7-1.6v-3.9c0-1,0.6-1.6,1.7-1.6h7.4c0.4,0,0.6-0.2,0.6-0.6v-13.2
			c0-1,0.6-1.6,1.7-1.6h5.6c1.1,0,1.7,0.5,1.7,1.6v13.2c0,0.4,0.2,0.6,0.6,0.6h14.2c1.1,0,1.7,0.5,1.7,1.6v3.9
			C253,174.8,252.4,175.3,251.3,175.3z"/>
		<path class="st4" d="M316.9,172.8c4.3,3.6,6.4,8.4,6.4,14.3v39.1c0,1-0.6,1.6-1.7,1.6h-5.9c-1.1,0-1.7-0.5-1.7-1.6V222
			c0-0.2-0.1-0.4-0.3-0.5c-0.1-0.1-0.4,0-0.5,0.2c-2.3,2.3-5.3,4-8.7,5.1c-3.5,1.2-7.3,1.8-11.5,1.8c-6.1,0-11.1-1.4-15.3-4.2
			c-4.1-2.8-6.2-7.1-6.2-12.9c0-5.9,2.3-10.5,7.1-13.9c4.7-3.4,11.3-5.1,19.7-5.1h15.1c0.4,0,0.6-0.2,0.6-0.6v-4.4
			c0-4-1.3-7.1-3.7-9.4c-2.5-2.3-6.3-3.5-11.5-3.5c-4.1,0-7.4,0.7-10,2.1c-2.6,1.4-4.2,3.4-4.9,5.9c-0.3,0.9-0.9,1.3-2,1.2l-6.3-0.7
			c-1.1-0.1-1.6-0.6-1.6-1.3c0.8-4.3,3.5-7.8,8-10.4c4.4-2.7,10-4,16.7-4C306.5,167.5,312.6,169.2,316.9,172.8z M308.4,218.1
			c3.7-2.3,5.6-5.4,5.6-9.3v-9c0-0.4-0.2-0.6-0.6-0.6h-13.7c-5.7,0-10.3,1.1-13.7,3.2s-5.2,5.1-5.2,8.8c0,3.5,1.3,6.1,4,7.8
			s6.1,2.6,10.3,2.6C300.2,221.6,304.7,220.4,308.4,218.1z"/>
		<path class="st5" d="M350.2,226.2v-79.1c0-1,0.6-1.6,1.7-1.6h5.9c1.1,0,1.7,0.5,1.7,1.6v79.1c0,1-0.6,1.6-1.7,1.6h-5.9
			C350.8,227.8,350.2,227.3,350.2,226.2z"/>
	</g>
</g>
</svg>
