<?xml version="1.0" encoding="UTF-8"?><svg id="a" xmlns="http://www.w3.org/2000/svg" viewBox="0 0 390 125"><defs><style>.b{fill:#fff;}</style></defs><g><path class="b" d="M8.54,124.56c-1.08-.17-2.08-.41-3.01-.72v-3.45c.95,.33,1.98,.57,3.09,.75,1.11,.17,2.15,.26,3.14,.26,1.65,0,2.85-.28,3.62-.83,.77-.56,1.15-1.37,1.15-2.44,0-.61-.12-1.11-.35-1.51-.24-.4-.63-.74-1.17-1.04-.55-.29-1.31-.57-2.28-.82l-1.57-.41c-2.06-.51-3.59-1.31-4.59-2.38-1.01-1.07-1.51-2.47-1.51-4.2,0-2.17,.78-3.85,2.34-5.05s3.84-1.79,6.85-1.79c.99,0,1.94,.06,2.87,.18,.93,.12,1.76,.29,2.49,.51v3.45c-.76-.23-1.58-.41-2.47-.54-.89-.13-1.79-.19-2.69-.19-1.81,0-3.14,.28-3.96,.83-.83,.56-1.24,1.35-1.24,2.38,0,.58,.11,1.06,.32,1.45,.21,.39,.57,.72,1.07,1.01,.5,.28,1.18,.55,2.05,.79l1.57,.39c2.23,.56,3.87,1.37,4.92,2.44,1.04,1.07,1.57,2.48,1.57,4.22,0,1.45-.35,2.7-1.06,3.74s-1.74,1.85-3.08,2.4c-1.35,.55-2.96,.83-4.82,.83-1.07,0-2.14-.08-3.22-.25Z"/><path class="b" d="M29.31,123.52c-1.57-.86-2.78-2.18-3.63-3.96s-1.28-4.01-1.28-6.69,.43-4.9,1.28-6.68,2.07-3.1,3.64-3.96c1.57-.87,3.44-1.3,5.59-1.3s4.02,.43,5.59,1.3c1.57,.87,2.78,2.19,3.63,3.96,.85,1.78,1.28,4,1.28,6.68s-.43,4.89-1.29,6.67c-.86,1.78-2.07,3.11-3.64,3.97-1.57,.87-3.43,1.3-5.58,1.3s-4.03-.43-5.59-1.29Zm10.2-4.15c1.06-1.34,1.6-3.47,1.6-6.41s-.54-5.21-1.6-6.57-2.6-2.04-4.59-2.04-3.52,.67-4.59,2-1.6,3.47-1.6,6.42,.53,5.22,1.59,6.58c1.06,1.35,2.59,2.03,4.59,2.03s3.54-.67,4.6-2.01Z"/><path class="b" d="M51.9,121.95c-1.98-1.9-2.97-4.92-2.97-9.04s1.02-7.01,3.04-9c2.03-1.99,4.96-2.99,8.79-2.99,1.72,0,3.39,.2,5,.6v3.49c-1.51-.39-3.08-.58-4.7-.58-1.74,0-3.18,.28-4.31,.85s-1.99,1.47-2.56,2.7c-.57,1.23-.86,2.86-.86,4.87s.28,3.71,.85,4.95,1.4,2.14,2.51,2.68c1.11,.55,2.5,.82,4.19,.82,1.58,0,3.21-.26,4.88-.77v3.49c-.78,.25-1.61,.45-2.51,.58s-1.81,.2-2.73,.2c-3.77,0-6.64-.95-8.62-2.86Z"/><path class="b" d="M71.28,124.51v-23.29h4.2v23.29h-4.2Z"/><path class="b" d="M86.75,121.13h11.67v3.38h-15.83v-23.29h15.67v3.38h-11.52v6.29h9.94v3.38h-9.94v6.84Z"/><path class="b" d="M103.71,124.37v-22.67c1.05-.22,2.18-.4,3.4-.53,1.22-.13,2.39-.2,3.52-.2,4.12,0,7.22,.98,9.29,2.93,2.07,1.95,3.11,4.94,3.11,8.97,0,2.76-.49,5.01-1.46,6.76s-2.44,3.03-4.4,3.86c-1.96,.83-4.42,1.24-7.4,1.24-2,0-4.02-.12-6.06-.36Zm11.54-3.94c1.16-.57,2.03-1.48,2.6-2.71,.58-1.24,.87-2.86,.87-4.86s-.29-3.6-.87-4.84c-.58-1.24-1.44-2.16-2.59-2.74s-2.61-.87-4.38-.87c-.89,0-1.88,.09-2.97,.27v16.47c.81,.09,1.77,.14,2.9,.14,1.8,0,3.29-.29,4.44-.86Z"/><path class="b" d="M142.51,124.51l-2.19-6.7h-9.09l-2.19,6.7h-4.12l7.84-23.29h6.07l7.84,23.29h-4.15Zm-10.2-10.07h6.91l-3.46-10.57-3.45,10.57Z"/><path class="b" d="M149.89,124.37v-22.67c1.05-.22,2.18-.4,3.4-.53,1.22-.13,2.39-.2,3.52-.2,4.12,0,7.22,.98,9.29,2.93,2.07,1.95,3.11,4.94,3.11,8.97,0,2.76-.49,5.01-1.46,6.76s-2.44,3.03-4.4,3.86c-1.96,.83-4.42,1.24-7.4,1.24-2,0-4.02-.12-6.06-.36Zm11.54-3.94c1.16-.57,2.03-1.48,2.6-2.71,.58-1.24,.87-2.86,.87-4.86s-.29-3.6-.87-4.84c-.58-1.24-1.44-2.16-2.59-2.74s-2.61-.87-4.38-.87c-.89,0-1.88,.09-2.97,.27v16.47c.81,.09,1.77,.14,2.9,.14,1.8,0,3.29-.29,4.44-.86Z"/><path class="b" d="M183.29,124.37v-22.67c1.05-.22,2.18-.4,3.4-.53,1.22-.13,2.39-.2,3.52-.2,4.12,0,7.22,.98,9.29,2.93,2.07,1.95,3.11,4.94,3.11,8.97,0,2.76-.49,5.01-1.46,6.76s-2.44,3.03-4.4,3.86c-1.96,.83-4.42,1.24-7.4,1.24-2,0-4.02-.12-6.06-.36Zm11.54-3.94c1.16-.57,2.03-1.48,2.6-2.71,.58-1.24,.87-2.86,.87-4.86s-.29-3.6-.87-4.84c-.58-1.24-1.44-2.16-2.59-2.74s-2.61-.87-4.38-.87c-.89,0-1.88,.09-2.97,.27v16.47c.81,.09,1.77,.14,2.9,.14,1.8,0,3.29-.29,4.44-.86Z"/><path class="b" d="M211.12,121.13h11.67v3.38h-15.83v-23.29h15.67v3.38h-11.52v6.29h9.94v3.38h-9.94v6.84Z"/><path class="b" d="M228.08,124.51v-23.29h4.2v19.78h10.98v3.51h-15.18Z"/><path class="b" d="M260.22,121.13h11.67v3.38h-15.83v-23.29h15.67v3.38h-11.52v6.29h9.94v3.38h-9.94v6.84Z"/><path class="b" d="M279.36,124.56c-1.08-.17-2.08-.41-3.01-.72v-3.45c.95,.33,1.98,.57,3.09,.75,1.11,.17,2.15,.26,3.14,.26,1.65,0,2.85-.28,3.62-.83,.77-.56,1.15-1.37,1.15-2.44,0-.61-.12-1.11-.35-1.51-.24-.4-.63-.74-1.17-1.04-.55-.29-1.31-.57-2.28-.82l-1.57-.41c-2.06-.51-3.59-1.31-4.59-2.38-1.01-1.07-1.51-2.47-1.51-4.2,0-2.17,.78-3.85,2.34-5.05s3.84-1.79,6.85-1.79c.99,0,1.94,.06,2.87,.18,.93,.12,1.76,.29,2.49,.51v3.45c-.76-.23-1.58-.41-2.47-.54-.89-.13-1.79-.19-2.69-.19-1.81,0-3.14,.28-3.96,.83-.83,.56-1.24,1.35-1.24,2.38,0,.58,.11,1.06,.32,1.45,.21,.39,.57,.72,1.07,1.01,.5,.28,1.18,.55,2.05,.79l1.57,.39c2.23,.56,3.87,1.37,4.92,2.44,1.04,1.07,1.57,2.48,1.57,4.22,0,1.45-.35,2.7-1.06,3.74s-1.74,1.85-3.08,2.4c-1.35,.55-2.96,.83-4.82,.83-1.07,0-2.14-.08-3.22-.25Z"/><path class="b" d="M301.15,124.51v-19.78h-7.49v-3.51h19.18v3.51h-7.49v19.78h-4.2Z"/><path class="b" d="M330.22,124.51l-2.19-6.7h-9.09l-2.19,6.7h-4.12l7.84-23.29h6.07l7.84,23.29h-4.15Zm-10.2-10.07h6.91l-3.46-10.57-3.45,10.57Z"/><path class="b" d="M338.23,124.37v-22.67c1.05-.22,2.18-.4,3.4-.53,1.22-.13,2.39-.2,3.52-.2,4.12,0,7.22,.98,9.29,2.93,2.07,1.95,3.11,4.94,3.11,8.97,0,2.76-.49,5.01-1.46,6.76s-2.44,3.03-4.4,3.86c-1.96,.83-4.42,1.24-7.4,1.24-2,0-4.02-.12-6.06-.36Zm11.54-3.94c1.16-.57,2.03-1.48,2.6-2.71,.58-1.24,.87-2.86,.87-4.86s-.29-3.6-.87-4.84c-.58-1.24-1.44-2.16-2.59-2.74s-2.61-.87-4.38-.87c-.89,0-1.88,.09-2.97,.27v16.47c.81,.09,1.77,.14,2.9,.14,1.8,0,3.29-.29,4.44-.86Z"/><path class="b" d="M366.59,123.52c-1.57-.86-2.78-2.18-3.63-3.96s-1.28-4.01-1.28-6.69,.43-4.9,1.28-6.68,2.07-3.1,3.64-3.96c1.57-.87,3.44-1.3,5.59-1.3s4.02,.43,5.59,1.3c1.57,.87,2.78,2.19,3.63,3.96,.85,1.78,1.28,4,1.28,6.68s-.43,4.89-1.29,6.67c-.86,1.78-2.07,3.11-3.64,3.97-1.57,.87-3.43,1.3-5.58,1.3s-4.03-.43-5.59-1.29Zm10.2-4.15c1.06-1.34,1.6-3.47,1.6-6.41s-.54-5.21-1.6-6.57-2.6-2.04-4.59-2.04-3.52,.67-4.59,2-1.6,3.47-1.6,6.42,.53,5.22,1.59,6.58c1.06,1.35,2.59,2.03,4.59,2.03s3.54-.67,4.6-2.01Z"/></g><g><circle class="b" cx="265.72" cy="73.76" r="12.53"/><g><path class="b" d="M53.56,61.28H19.23c.21,2.42,.83,4.32,1.87,5.7,1.03,1.38,2.7,2.38,4.99,3,2.29,.61,5.47,.92,9.54,.92s9.08-.56,14.61-1.68v14.61c-5.78,1.19-11.6,1.79-17.45,1.79-7.74,0-14.05-1.04-18.92-3.13-4.87-2.08-8.47-5.33-10.8-9.72C.74,68.37-.42,62.66-.42,55.65c0-6.24,1.08-11.58,3.23-16.03,2.16-4.45,5.32-7.85,9.49-10.2,4.17-2.35,9.25-3.52,15.24-3.52,8.51,0,14.98,2.62,19.4,7.86,4.41,5.24,6.62,12.75,6.62,22.52v4.99ZM21.26,40.88c-1.31,1.82-2.01,4.92-2.08,9.3h16.09c-.07-4.38-.75-7.48-2.02-9.3-1.28-1.82-3.25-2.73-5.91-2.73s-4.76,.91-6.07,2.73Z"/><path class="b" d="M73.32,82.51c-3.61-2.03-6.48-5.19-8.62-9.49-2.14-4.29-3.21-9.68-3.21-16.16,0-9.99,2.74-17.65,8.23-23,5.48-5.34,13.48-8.02,24-8.02,1.58,0,3.49,.11,5.73,.32V-.43h19.76V84.51h-16.56l-1.21-5.99h-.84c-1.68,2.21-3.8,3.93-6.36,5.18-2.56,1.24-5.48,1.87-8.78,1.87-4.49,0-8.53-1.02-12.14-3.05Zm22.52-13.69c1.42-.47,2.62-1.16,3.6-2.08v-25.49c-1.75-.35-3.64-.53-5.68-.53-4.24,0-7.38,1.14-9.41,3.42-2.03,2.28-3.05,6.03-3.05,11.25s.87,8.84,2.6,10.96c1.73,2.12,4.25,3.18,7.54,3.18,1.51,0,2.97-.24,4.39-.71Z"/><path class="b" d="M137.66,79.86c-3.65-3.77-5.47-9.66-5.47-17.69V26.85h19.76V60.75c0,2.84,.55,4.85,1.66,6.04,1.1,1.19,2.71,1.79,4.81,1.79,1.54,0,3.1-.32,4.68-.97,1.58-.65,2.86-1.55,3.84-2.71V26.85h19.76v57.66h-16.24l-1.31-5.62h-.79c-2.14,2.17-4.55,3.82-7.23,4.94-2.68,1.12-5.55,1.68-8.6,1.68-6.27,0-11.23-1.88-14.88-5.65Z"/><path class="b" d="M205.68,78.1c-5.36-5.01-8.04-12.44-8.04-22.29s2.84-17.43,8.52-22.42c5.68-4.99,13.86-7.49,24.55-7.49,4.91,0,9.34,.44,13.3,1.31v15.45c-3.68-.63-7.17-.95-10.46-.95-5.47,0-9.44,1.1-11.91,3.31-2.47,2.21-3.71,5.75-3.71,10.62s1.17,8.63,3.52,10.85c2.35,2.23,5.94,3.34,10.78,3.34,1.75,0,3.51-.14,5.28-.42,1.77-.28,3.93-.72,6.49-1.31v15.4c-2.1,.67-4.44,1.18-7.02,1.55-2.58,.37-5.2,.55-7.86,.55-10.27,0-18.08-2.51-23.44-7.52Z"/><path class="b" d="M327.36,28.35c4.06,1.63,7.06,4.3,8.99,8.02,1.93,3.72,2.89,8.76,2.89,15.14v33.01h-16.19l-1.37-5.47h-.89c-1.61,2.24-3.68,3.9-6.2,4.97-2.52,1.07-5.38,1.6-8.57,1.6-3.96,0-7.39-.72-10.28-2.16-2.89-1.44-5.09-3.43-6.6-5.99-1.51-2.56-2.26-5.52-2.26-8.88,0-5.68,2.01-10.07,6.02-13.17,4.01-3.1,10.35-4.91,19-5.44l8.09-.53c-.07-2.17-.52-3.89-1.34-5.15s-2.12-2.17-3.89-2.73c-1.77-.56-4.2-.84-7.28-.84-2.35,0-4.93,.19-7.75,.58-2.82,.39-5.46,.95-7.91,1.68v-14.67c2.87-.77,6.04-1.37,9.49-1.79,3.45-.42,6.74-.63,9.86-.63,6.73,0,12.12,.82,16.19,2.44Zm-10.83,43.18c1.26-.39,2.42-1,3.47-1.84v-9.51l-5.99,.42c-2.66,.18-4.62,.78-5.86,1.81-1.24,1.03-1.87,2.46-1.87,4.28s.55,3.09,1.66,4.02c1.1,.93,2.69,1.39,4.76,1.39,1.3,0,2.58-.19,3.84-.58Z"/><path class="b" d="M352.22,26.85h16.14l1.52,7.36h.89c1.44-2.8,3.42-4.88,5.94-6.23,2.52-1.35,5.45-2.02,8.78-2.02,1.44,0,3,.14,4.68,.42v17.82c-1.54-.35-3.52-.53-5.94-.53s-4.76,.41-7.02,1.23c-2.26,.82-4,1.95-5.23,3.39v36.22h-19.76V26.85Z"/></g></g></svg>